# xmcd
#
# Track frame offsets:
#	150
#	15580
#	28742
#	42360
#	58507
#	72220
#	83237
#	97162
#
# Disc length: 1494 seconds
#
# Revision: 1
# Processed by: cddbd v1.5.2PL0 Copyright (c) Steve Scherf et al.
# Submitted via: audiograbber 1.83.01
#
DISCID=6405d408
DTITLE=The Phenomenal Pound Puppies - I Get So Excited When You Call
DYEAR=1999
DGENRE=Blues
TTITLE0=I Get So Excited When You Call
TTITLE1=Nature Boy
TTITLE2=Stop Your Foolin' Around
TTITLE3=Keep On Lovin' Me Babe
TTITLE4=Talk, Talk, Talk
TTITLE5=Tail Shaking Honey
TTITLE6=Big Boots to Fill
TTITLE7=Kiddio
EXTD=
EXTT0=
EXTT1=
EXTT2=
EXTT3=
EXTT4=
EXTT5=
EXTT6=
EXTT7=
PLAYORDER=
